<svg xmlns="http://www.w3.org/2000/svg" version="1.1" xmlns:xlink="http://www.w3.org/1999/xlink" xmlns:svgjs="http://svgjs.com/svgjs" width="1440" height="560" preserveAspectRatio="none" viewBox="0 0 1440 560"><g mask="url(&quot;#SvgjsMask1020&quot;)" fill="none"><rect width="1440" height="560" x="0" y="0" fill="url(#SvgjsLinearGradient1021)"></rect><path d="M314.033,388.56C343.736,386.749,369.645,370.043,384.609,344.321C399.668,318.437,401.461,287.578,388.483,260.59C373.38,229.183,348.829,199.508,314.033,197.561C276.499,195.461,241.919,218.535,223.604,251.365C205.74,283.385,206.608,323.332,226.787,353.946C245.242,381.945,280.561,390.601,314.033,388.56" fill="rgba(28, 83, 142, 0.4)" class="triangle-float3"></path><path d="M223.11049996737546 392.86675061855385L326.57875681237215 452.7357255877201 328.40248713763265 348.2542852286898z" fill="rgba(28, 83, 142, 0.4)" class="triangle-float2"></path><path d="M877.8257692001253 210.26060961289045L764.9203050636776 97.3551454764428 652.0148409272299 210.26060961289045 764.9203050636776 323.1660737493381z" fill="rgba(28, 83, 142, 0.4)" class="triangle-float1"></path><path d="M1112.6157698440616 98.75002816043673L1078.1531237439458 204.81514671026025 1218.6808883938852 133.21267426055257z" fill="rgba(28, 83, 142, 0.4)" class="triangle-float1"></path><path d="M796.67,145.236C821.753,144.495,835.244,118.095,846.369,95.602C855.9,76.332,860.535,54.816,850.899,35.599C840.192,14.246,820.556,-3.734,796.67,-3.51C773.068,-3.289,755.365,15.818,744.171,36.598C733.641,56.146,731.953,78.702,741.614,98.694C752.82,121.884,770.925,145.996,796.67,145.236" fill="rgba(28, 83, 142, 0.4)" class="triangle-float1"></path><path d="M707.002,458.104C729.359,456.164,745.412,438.227,755.493,418.178C764.445,400.374,764.183,380.148,755.121,362.4C745.038,342.653,729.124,324.697,707.002,323.207C682.525,321.558,659.188,334.268,646.172,355.062C632.301,377.223,628.066,405.567,641.357,428.081C654.467,450.289,681.31,460.333,707.002,458.104" fill="rgba(28, 83, 142, 0.4)" class="triangle-float1"></path></g><defs><mask id="SvgjsMask1020"><rect width="1440" height="560" fill="#ffffff"></rect></mask><linearGradient x1="15.28%" y1="-39.29%" x2="84.72%" y2="139.29%" gradientUnits="userSpaceOnUse" id="SvgjsLinearGradient1021"><stop stop-color="#0e2a47" offset="0"></stop><stop stop-color="rgba(2, 22, 47, 1)" offset="1"></stop></linearGradient><style>
            @keyframes float1 {
                0%{transform: translate(0, 0)}
                50%{transform: translate(-10px, 0)}
                100%{transform: translate(0, 0)}
            }

            .triangle-float1 {
                animation: float1 5s infinite;
            }

            @keyframes float2 {
                0%{transform: translate(0, 0)}
                50%{transform: translate(-5px, -5px)}
                100%{transform: translate(0, 0)}
            }

            .triangle-float2 {
                animation: float2 4s infinite;
            }

            @keyframes float3 {
                0%{transform: translate(0, 0)}
                50%{transform: translate(0, -10px)}
                100%{transform: translate(0, 0)}
            }

            .triangle-float3 {
                animation: float3 6s infinite;
            }
        </style></defs></svg>