<?xml version="1.0" encoding="UTF-8"?>
<svg width="350px" height="350px" viewBox="0 0 350 350" version="1.1" xmlns="http://www.w3.org/2000/svg" xmlns:xlink="http://www.w3.org/1999/xlink">
    <!-- Generator: Sketch 43.1 (39012) - http://www.bohemiancoding.com/sketch -->
    <title>Artboard</title>
    <desc>Created with Sketch.</desc>
    <defs></defs>
    <g id="Page-1" stroke="none" stroke-width="1" fill="none" fill-rule="evenodd">
        <g id="Artboard" fill-rule="nonzero">
            <g id="Vagrant_VerticalLogo_FullColor" transform="translate(57.000000, 25.000000)">
                <path d="M7.23966942,221.330579 L7.23966942,216.07438 L2.47933884,216.07438 L2.47933884,221.305785 L0,221.305785 L0,208.735537 L2.47933884,208.735537 L2.47933884,214.016529 L7.23966942,214.016529 L7.23966942,208.735537 L9.71900826,208.735537 L9.71900826,221.330579 L7.23966942,221.330579 Z M18.6694215,221.330579 L16.7355372,221.330579 L16.5619835,220.661157 C15.7126639,221.184954 14.7333741,221.459842 13.7355372,221.454545 C12,221.454545 11.2561983,220.31405 11.2561983,218.752066 C11.2561983,217.190083 12.0991736,216.272727 14.0082645,216.272727 L16.2892562,216.272727 L16.2892562,215.330579 C16.2892562,214.31405 15.9917355,213.966942 14.4793388,213.966942 C13.5965856,213.97334 12.7164964,214.06467 11.8512397,214.239669 L11.553719,212.504132 C12.6368471,212.210583 13.7538341,212.06054 14.8760331,212.057851 C17.8512397,212.057851 18.7190083,213.07438 18.7190083,215.330579 L18.6694215,221.330579 Z M16.1900826,217.909091 L14.553719,217.909091 C13.785124,217.909091 13.5619835,218.107438 13.5619835,218.801653 C13.5619835,219.495868 13.785124,219.719008 14.5041322,219.719008 C15.1286122,219.709374 15.7413345,219.547684 16.2892562,219.247934 L16.1900826,217.909091 Z M23.6280992,221.528926 C22.5178683,221.513192 21.415673,221.337842 20.3553719,221.008264 L20.677686,219.272727 C21.5986281,219.527053 22.5487608,219.660405 23.5041322,219.669421 C24.5454545,219.669421 24.7190083,219.446281 24.7190083,218.752066 C24.7190083,218.057851 24.7190083,217.909091 23.0578512,217.561983 C20.7520661,217.016529 20.5785124,216.471074 20.5785124,214.710744 C20.5785124,212.950413 21.4214876,212.082645 24.1239669,212.082645 C25.0750971,212.085897 26.0229704,212.193987 26.9504132,212.404959 L26.7272727,214.214876 C25.8676066,214.058564 24.9973636,213.967396 24.1239669,213.942149 C23.0826446,213.942149 22.9090909,214.165289 22.9090909,214.735537 C22.9090909,215.305785 22.9090909,215.528926 24.2479339,215.826446 C26.9008264,216.495868 27.1487603,216.842975 27.1487603,218.702479 C27.1487603,220.561983 26.5041322,221.504132 23.6280992,221.504132 L23.6280992,221.528926 Z M34.4876033,221.330579 L34.4876033,214.983471 C34.4876033,214.487603 34.2644628,214.264463 33.7190083,214.264463 C32.8505881,214.357691 32.0085465,214.618723 31.2396694,215.033058 L31.2396694,221.330579 L28.7603306,221.330579 L28.7603306,208.561983 L31.2396694,208.909091 L31.2396694,212.92562 C32.3233512,212.397008 33.5057956,212.101397 34.7107438,212.057851 C36.2727273,212.057851 36.8429752,213.123967 36.8429752,214.735537 L36.8429752,221.330579 L34.4876033,221.330579 Z M38.8512397,210.966942 L38.8512397,208.735537 L41.3305785,208.735537 L41.3305785,210.966942 L38.8512397,210.966942 Z M38.8512397,221.330579 L38.8512397,212.231405 L41.3305785,212.231405 L41.3305785,221.305785 L38.8512397,221.330579 Z M43.1157025,212.330579 C43.1157025,210.049587 44.5041322,208.735537 47.7272727,208.735537 C48.9132381,208.738414 50.0948048,208.879869 51.2479339,209.157025 L50.9752066,211.190083 C49.9311247,210.955965 48.86981,210.806718 47.8016529,210.743802 C46.1157025,210.743802 45.5702479,211.31405 45.5702479,212.628099 L45.5702479,217.413223 C45.5702479,218.727273 46.1157025,219.297521 47.8016529,219.297521 C48.8664418,219.275458 49.9277242,219.167672 50.9752066,218.975207 L51.2479339,221.008264 C50.0948048,221.28542 48.9132381,221.426876 47.7272727,221.429752 C44.5041322,221.429752 43.1157025,220.115702 43.1157025,217.834711 L43.1157025,212.330579 Z M56.4793388,221.528926 C53.231405,221.528926 52.3636364,219.818182 52.3636364,217.958678 L52.3636364,215.702479 C52.3636364,213.842975 53.231405,212.132231 56.4793388,212.132231 C59.7272727,212.132231 60.5950413,213.842975 60.5950413,215.702479 L60.5950413,218.008264 C60.5950413,219.793388 59.7024793,221.504132 56.4793388,221.504132 L56.4793388,221.528926 Z M56.4793388,214.090909 C55.214876,214.090909 54.7190083,214.636364 54.7190083,215.652893 L54.7190083,218.132231 C54.7190083,219.14876 55.214876,219.694215 56.4793388,219.694215 C57.7438017,219.694215 58.2396694,219.14876 58.2396694,218.132231 L58.2396694,215.652893 C58.214876,214.53719 57.7190083,213.991736 56.4793388,213.991736 L56.4793388,214.090909 Z M67.2644628,214.239669 C66.4064255,214.615289 65.5776697,215.05453 64.785124,215.553719 L64.785124,221.404959 L62.3057851,221.404959 L62.3057851,212.231405 L64.4628099,212.231405 L64.4628099,213.22314 C65.235085,212.72227 66.0683037,212.322325 66.9421488,212.033058 L67.2644628,214.239669 Z M76.7355372,218.181818 C76.8669454,219.050327 76.5834168,219.930191 75.9696484,220.558573 C75.35588,221.186954 74.4829301,221.491104 73.6115702,221.380165 C72.7785099,221.365469 71.9485672,221.274176 71.1322314,221.107438 L71.1322314,224.826446 L68.6528926,225.173554 L68.6528926,212.231405 L70.5371901,212.231405 L70.7603306,213 C71.6363668,212.378273 72.6861343,212.048594 73.7603306,212.057851 C75.6694215,212.057851 76.6859504,213.14876 76.6859504,215.206612 L76.7355372,218.181818 Z M71.0826446,219.198347 C71.775424,219.349124 72.4812263,219.432159 73.1900826,219.446281 C74.0330579,219.446281 74.3801653,219.049587 74.3801653,218.231405 L74.3801653,215.157025 C74.3801653,214.413223 74.0826446,213.991736 73.214876,213.991736 C72.439985,214.017806 71.6969241,214.306289 71.107438,214.809917 L71.0826446,219.198347 Z" id="Shape" fill="#000000"></path>
                <polygon id="Shape" fill="#000000" points="35.3801653 231.471074 45.6198347 231.471074 30.0743802 283.53719 15.5454545 283.53719 0 231.471074 10.2396694 231.471074 22.8099174 274.809917"></polygon>
                <path d="M74.0082645,283.46281 L66.1983471,283.46281 L65.5041322,280.983471 C62.130154,283.170829 58.1945308,284.333431 54.1735537,284.330579 C47.231405,284.330579 44.2561983,279.570248 44.2561983,273 C44.2561983,265.264463 47.6033058,262.31405 55.338843,262.31405 L64.4628099,262.31405 L64.4628099,258.322314 C64.4628099,254.107438 63.2975207,252.619835 57.1983471,252.619835 C53.6558854,252.656004 50.1259218,253.046377 46.661157,253.785124 L45.4958678,246.520661 C49.7443313,245.348725 54.1300696,244.748396 58.5371901,244.735537 C70.4876033,244.735537 74.0082645,248.950413 74.0082645,258.471074 L74.0082645,283.46281 Z M64.4628099,269.107438 L57.4710744,269.107438 C54.3471074,269.107438 53.4793388,269.975207 53.4793388,272.85124 C53.4793388,275.727273 54.3471074,276.669421 57.2975207,276.669421 C59.8215778,276.637134 62.2959075,275.963092 64.4876033,274.710744 L64.4628099,269.107438 Z" id="Shape" fill="#000000"></path>
                <path d="M92.2066116,273.247934 C91.0002028,273.833264 90.1572361,274.972659 89.9504132,276.297521 C89.9504132,277.31405 90.5702479,277.785124 92.0578512,277.933884 L103.066116,279.099174 C109.239669,279.793388 111.173554,282.842975 111.173554,288.322314 C111.173554,296.454545 108.198347,299.652893 93.9917355,299.652893 C89.0335397,299.66019 84.0968321,299.001407 79.3140496,297.694215 L80.4793388,290.578512 C84.6609268,291.644623 88.9574242,292.194175 93.2727273,292.214876 C100.834711,292.214876 102.322314,291.669421 102.322314,289.165289 C102.322314,286.661157 101.628099,286.438017 98.7272727,286.115702 C94.3636364,285.644628 92.553719,285.421488 87.7190083,284.876033 C82.338843,284.256198 80.2809917,282.396694 80.2809917,277.61157 C80.4516063,274.918004 81.9594303,272.488732 84.2975207,271.140496 C80.8008191,268.95848 78.8119226,265.009373 79.1404959,260.900826 L79.1404959,257.305785 C79.2892562,249.421488 83.4297521,244.661157 94.4380165,244.661157 C96.6188362,244.643193 98.7931539,244.901446 100.909091,245.429752 L112.61157,245.429752 L112.61157,250.190083 L108.396694,251.355372 C109.303219,253.197644 109.761944,255.227931 109.735537,257.280992 L109.735537,260.876033 C109.735537,268.61157 105.049587,273.272727 94.4380165,273.272727 C93.694339,273.306344 92.9493586,273.298066 92.2066116,273.247934 L92.2066116,273.247934 Z M94.3884298,252.322314 C89.7024793,252.322314 88.0661157,254.033058 88.0661157,257.628099 L88.0661157,260.528926 C88.0661157,264.272727 89.9504132,265.68595 94.3884298,265.68595 C98.8264463,265.68595 100.785124,264.198347 100.785124,260.528926 L100.785124,257.628099 C100.785124,254.033058 99.1735537,252.322314 94.3884298,252.322314 Z" id="Shape" fill="#000000"></path>
                <path d="M136.363636,253.413223 C132.922112,255.00142 129.606715,256.849754 126.446281,258.942149 L126.446281,283.46281 L116.876033,283.46281 L116.876033,245.454545 L124.909091,245.454545 L125.528926,249.669421 C128.604539,247.591486 131.938564,245.924473 135.446281,244.710744 L136.363636,253.413223 Z" id="Shape" fill="#000000"></path>
                <path d="M168.322314,283.46281 L160.512397,283.46281 L159.818182,280.983471 C156.444204,283.170829 152.50858,284.333431 148.487603,284.330579 C141.545455,284.330579 138.570248,279.570248 138.570248,273 C138.570248,265.264463 141.917355,262.31405 149.652893,262.31405 L158.77686,262.31405 L158.77686,258.322314 C158.77686,254.107438 157.61157,252.619835 151.512397,252.619835 C147.969935,252.656004 144.439971,253.046377 140.975207,253.785124 L139.834711,246.446281 C144.083174,245.274345 148.468913,244.674016 152.876033,244.661157 C164.826446,244.661157 168.347107,248.876033 168.347107,258.396694 L168.322314,283.46281 Z M158.801653,269.107438 L151.785124,269.107438 C148.661157,269.107438 147.793388,269.975207 147.793388,272.85124 C147.793388,275.727273 148.661157,276.669421 151.61157,276.669421 C154.135627,276.637134 156.609957,275.963092 158.801653,274.710744 L158.801653,269.107438 Z" id="Shape" fill="#000000"></path>
                <path d="M196.661157,283.46281 L196.661157,256.909091 C196.661157,254.876033 195.793388,253.859504 193.61157,253.859504 C190.125305,254.252339 186.75312,255.339869 183.694215,257.057851 L183.694215,283.438017 L174.173554,283.438017 L174.173554,245.454545 L181.438017,245.454545 L182.380165,248.652893 C187.121263,246.276888 192.306344,244.917282 197.603306,244.661157 C203.92562,244.661157 206.181818,249.099174 206.181818,255.892562 L206.181818,283.46281 L196.661157,283.46281 Z" id="Shape" fill="#000000"></path>
                <path d="M234.22314,282.644628 C231.536444,283.587761 228.714884,284.090116 225.867769,284.132231 C218.92562,284.132231 215.404959,280.859504 215.404959,274.066116 L215.404959,252.892562 L209.702479,252.892562 L209.702479,245.454545 L215.404959,245.454545 L215.404959,235.983471 L224.92562,234.644628 L224.92562,245.454545 L234.694215,245.454545 L234.07438,252.892562 L224.92562,252.892562 L224.92562,272.727273 C224.804498,273.664976 225.13252,274.604909 225.810773,275.263643 C226.489026,275.922378 227.438132,276.222822 228.371901,276.07438 C229.985608,276.029013 231.586243,275.770577 233.132231,275.305785 L234.22314,282.644628 Z" id="Shape" fill="#000000"></path>
                <polygon id="Shape" fill="#1159CC" points="210.173554 32.3553719 210.173554 14.7768595 167.975207 39.322314 167.975207 54.1487603 134.206612 126.966942 117.347107 138.619835 117.347107 191.92562 153.520661 171.07438"></polygon>
                <polygon id="Shape" fill="#1159CC" points="117.347107 100.636364 92.0330579 41.5785124 92.0330579 24.8677686 91.8595041 24.768595 66.7190083 39.322314 66.7190083 54.1487603 100.46281 130.165289 117.347107 121.834711"></polygon>
                <polygon id="Shape" fill="#127EFF" points="184.859504 0 142.68595 24.6942149 142.661157 24.6942149 142.661157 24.7190083 142.661157 24.7190083 142.661157 24.7190083 142.661157 41.5785124 117.347107 100.636364 117.347107 120.371901 100.46281 130.165289 66.7190083 54.1487603 66.7190083 39.2975207 92.0330579 24.7190083 49.8347107 0 24.5206612 14.7768595 24.5206612 32.8760331 81.4958678 171.247934 117.347107 191.92562 117.347107 139.958678 134.206612 130.165289 134.008264 130.041322 167.975207 54.1487603 167.975207 39.322314 167.975207 39.2975207 210.173554 14.7768595"></polygon>
            </g>
        </g>
    </g>
</svg>